<svg width="20" height="19" viewBox="0 0 20 19" fill="none" xmlns="http://www.w3.org/2000/svg">
<path d="M19.0902 4.05914C19.0256 3.98191 18.9449 3.9198 18.8537 3.87718C18.7626 3.83456 18.6631 3.81248 18.5625 3.8125H4.69906L4.27883 1.50422C4.22127 1.1874 4.05434 0.900826 3.80715 0.694466C3.55996 0.488105 3.24818 0.375047 2.92617 0.375H1.375C1.19266 0.375 1.0178 0.447433 0.888864 0.576364C0.759933 0.705295 0.6875 0.880164 0.6875 1.0625C0.6875 1.24484 0.759933 1.4197 0.888864 1.54864C1.0178 1.67757 1.19266 1.75 1.375 1.75H2.92188L5.11844 13.8062C5.18314 14.1637 5.34115 14.4978 5.57648 14.7747C5.25168 15.0781 5.01725 15.4655 4.89917 15.8939C4.7811 16.3224 4.78401 16.7752 4.90757 17.2022C5.03113 17.6291 5.27052 18.0134 5.59919 18.3126C5.92787 18.6118 6.33298 18.8141 6.7696 18.8971C7.20623 18.9801 7.65732 18.9405 8.07284 18.7828C8.48836 18.6251 8.85209 18.3554 9.12368 18.0036C9.39527 17.6518 9.56412 17.2316 9.6115 16.7897C9.65888 16.3478 9.58294 15.9014 9.39211 15.5H13.2954C13.1416 15.822 13.062 16.1744 13.0625 16.5312C13.0625 17.0072 13.2036 17.4724 13.468 17.8681C13.7324 18.2638 14.1082 18.5722 14.5479 18.7543C14.9876 18.9365 15.4714 18.9841 15.9382 18.8913C16.405 18.7984 16.8337 18.5692 17.1702 18.2327C17.5067 17.8962 17.7359 17.4675 17.8288 17.0007C17.9216 16.5339 17.874 16.0501 17.6918 15.6104C17.5097 15.1707 17.2013 14.7949 16.8056 14.5305C16.4099 14.2661 15.9447 14.125 15.4688 14.125H7.14742C6.98642 14.125 6.83053 14.0684 6.70693 13.9653C6.58334 13.8621 6.49987 13.7188 6.47109 13.5604L6.19867 12.0625H16.1674C16.6504 12.0624 17.1181 11.8928 17.4889 11.5833C17.8597 11.2738 18.1101 10.8439 18.1964 10.3687L19.2414 4.62289C19.2591 4.52358 19.2547 4.4216 19.2286 4.32417C19.2024 4.22674 19.1552 4.13626 19.0902 4.05914ZM15.4688 15.5C15.6727 15.5 15.8721 15.5605 16.0417 15.6738C16.2113 15.7871 16.3434 15.9482 16.4215 16.1366C16.4996 16.325 16.52 16.5324 16.4802 16.7324C16.4404 16.9325 16.3422 17.1162 16.198 17.2605C16.0537 17.4047 15.87 17.5029 15.6699 17.5427C15.4699 17.5825 15.2625 17.5621 15.0741 17.484C14.8857 17.4059 14.7246 17.2738 14.6113 17.1042C14.498 16.9346 14.4375 16.7352 14.4375 16.5312C14.4375 16.2577 14.5462 15.9954 14.7395 15.802C14.9329 15.6087 15.1952 15.5 15.4688 15.5ZM7.21875 15.5C7.42271 15.5 7.62209 15.5605 7.79168 15.6738C7.96127 15.7871 8.09345 15.9482 8.1715 16.1366C8.24955 16.325 8.26998 16.5324 8.23019 16.7324C8.19039 16.9325 8.09218 17.1162 7.94795 17.2605C7.80373 17.4047 7.61998 17.5029 7.41994 17.5427C7.21989 17.5825 7.01254 17.5621 6.82411 17.484C6.63567 17.4059 6.47461 17.2738 6.3613 17.1042C6.24798 16.9346 6.1875 16.7352 6.1875 16.5312C6.1875 16.2577 6.29615 15.9954 6.48955 15.802C6.68294 15.6087 6.94525 15.5 7.21875 15.5Z" fill="black"/>
</svg>
