<svg width="17" height="32" viewBox="0 0 17 32" fill="none" xmlns="http://www.w3.org/2000/svg">
<path d="M16.2228 16.9726L2.47281 30.7226C2.34506 30.8504 2.1934 30.9517 2.02648 31.0208C1.85957 31.09 1.68067 31.1256 1.5 31.1256C1.31933 31.1256 1.14043 31.09 0.973519 31.0208C0.806603 30.9517 0.65494 30.8504 0.527188 30.7226C0.399437 30.5949 0.298099 30.4432 0.22896 30.2763C0.159822 30.1094 0.124237 29.9305 0.124237 29.7498C0.124237 29.5691 0.159822 29.3902 0.22896 29.2233C0.298099 29.0564 0.399437 28.9047 0.527188 28.777L13.3061 15.9998L0.527188 3.2226C0.269183 2.96459 0.124237 2.61466 0.124237 2.24979C0.124237 1.88491 0.269183 1.53498 0.527188 1.27698C0.785194 1.01897 1.13513 0.874023 1.5 0.874023C1.86488 0.874023 2.21481 1.01897 2.47281 1.27698L16.2228 15.027C16.3507 15.1547 16.4521 15.3063 16.5213 15.4732C16.5905 15.6402 16.6261 15.8191 16.6261 15.9998C16.6261 16.1805 16.5905 16.3594 16.5213 16.5263C16.4521 16.6933 16.3507 16.8449 16.2228 16.9726Z" fill="#9874FF"/>
</svg>
