<svg width="17" height="32" viewBox="0 0 17 32" fill="none" xmlns="http://www.w3.org/2000/svg">
<path d="M16.4729 28.778C16.6007 28.9057 16.702 29.0574 16.7711 29.2243C16.8403 29.3912 16.8759 29.5701 16.8759 29.7508C16.8759 29.9314 16.8403 30.1103 16.7711 30.2772C16.702 30.4442 16.6007 30.5958 16.4729 30.7236C16.3452 30.8513 16.1935 30.9527 16.0266 31.0218C15.8597 31.0909 15.6808 31.1265 15.5001 31.1265C15.3194 31.1265 15.1405 31.0909 14.9736 31.0218C14.8067 30.9527 14.655 30.8513 14.5273 30.7236L0.777292 16.9736C0.64945 16.8459 0.548032 16.6942 0.478836 16.5273C0.40964 16.3604 0.374023 16.1815 0.374023 16.0008C0.374023 15.8201 0.40964 15.6411 0.478836 15.4742C0.548032 15.3073 0.64945 15.1557 0.777292 15.028L14.5273 1.27795C14.7853 1.01995 15.1352 0.875 15.5001 0.875C15.865 0.875 16.2149 1.01995 16.4729 1.27795C16.7309 1.53596 16.8759 1.88589 16.8759 2.25076C16.8759 2.61564 16.7309 2.96557 16.4729 3.22358L3.69401 16.0008L16.4729 28.778Z" fill="#9874FF"/>
</svg>
