<svg width="17" height="32" viewBox="0 0 17 32" fill="none" xmlns="http://www.w3.org/2000/svg">
<path d="M16.4728 28.777C16.6005 28.9047 16.7019 29.0564 16.771 29.2233C16.8402 29.3902 16.8757 29.5691 16.8757 29.7498C16.8757 29.9305 16.8402 30.1094 16.771 30.2763C16.7019 30.4432 16.6005 30.5949 16.4728 30.7226C16.345 30.8504 16.1934 30.9517 16.0265 31.0208C15.8596 31.09 15.6807 31.1256 15.5 31.1256C15.3193 31.1256 15.1404 31.09 14.9735 31.0208C14.8066 30.9517 14.6549 30.8504 14.5272 30.7226L0.77717 16.9726C0.649327 16.8449 0.54791 16.6933 0.478714 16.5263C0.409518 16.3594 0.373901 16.1805 0.373901 15.9998C0.373901 15.8191 0.409518 15.6402 0.478714 15.4732C0.54791 15.3063 0.649327 15.1547 0.77717 15.027L14.5272 1.27698C14.7852 1.01897 15.1351 0.874023 15.5 0.874023C15.8649 0.874023 16.2148 1.01897 16.4728 1.27698C16.7308 1.53498 16.8757 1.88491 16.8757 2.24979C16.8757 2.61466 16.7308 2.96459 16.4728 3.2226L3.69389 15.9998L16.4728 28.777Z" fill="#9874FF"/>
</svg>
